{"accessors":[{"bufferView":0,"componentType":5123,"count":1968,"max":[1293],"min":[0],"type":"SCALAR"},{"bufferView":1,"componentType":5126,"count":1294,"max":[0.045428380370140076,0.005128721706569195,0.03456723690032959],"min":[-0.03405069559812546,-0.007876279763877392,-0.04359837621450424],"type":"VEC3"},{"bufferView":2,"componentType":5126,"count":1294,"max":[1.0,0.0,1.0],"min":[-1.0,0.0,-1.0],"type":"VEC3"},{"bufferView":3,"componentType":5126,"count":1294,"max":[1.0,1.0],"min":[0.0,1.0],"type":"VEC2"},{"bufferView":4,"componentType":5126,"count":1294,"max":[0.0,0.0,0.05830828472971916],"min":[0.0,0.0,-0.0],"type":"VEC3"},{"bufferView":5,"componentType":5126,"count":1294,"max":[0.0,0.0,-0.0],"min":[0.0,0.0,-0.0],"type":"VEC3"},{"bufferView":6,"componentType":5123,"count":966,"max":[327],"min":[0],"type":"SCALAR"},{"bufferView":7,"componentType":5126,"count":328,"max":[0.045428380370140076,0.005128721706569195,0.03456723690032959],"min":[-0.03405069559812546,0.004133721347898245,-0.04359837621450424],"type":"VEC3"},{"bufferView":8,"componentType":5126,"count":328,"max":[0.0,1.0,-0.0],"min":[-0.0,1.0,-0.0],"type":"VEC3"},{"bufferView":9,"componentType":5126,"count":328,"max":[1.0,1.0],"min":[0.0,1.0],"type":"VEC2"},{"bufferView":10,"componentType":5126,"count":328,"max":[0.0,0.0,0.05830828472971916],"min":[0.0,0.0,-0.0],"type":"VEC3"},{"bufferView":11,"componentType":5126,"count":328,"max":[0.0,0.0,-0.0],"min":[0.0,0.0,-0.0],"type":"VEC3"}],"asset":{"generator":"Verge3D for Blender v4.6.0","version":"2.0"},"bufferViews":[{"buffer":0,"byteLength":3936,"byteOffset":0,"target":34963},{"buffer":0,"byteLength":15528,"byteOffset":3936,"target":34962},{"buffer":0,"byteLength":15528,"byteOffset":19464,"target":34962},{"buffer":0,"byteLength":10352,"byteOffset":34992,"target":34962},{"buffer":0,"byteLength":15528,"byteOffset":45344},{"buffer":0,"byteLength":15528,"byteOffset":60872},{"buffer":0,"byteLength":1932,"byteOffset":76400,"target":34963},{"buffer":0,"byteLength":3936,"byteOffset":78332,"target":34962},{"buffer":0,"byteLength":3936,"byteOffset":82268,"target":34962},{"buffer":0,"byteLength":2624,"byteOffset":86204,"target":34962},{"buffer":0,"byteLength":3936,"byteOffset":88828},{"buffer":0,"byteLength":3936,"byteOffset":92764}],"buffers":[{"byteLength":96700,"uri":"ic_template.bin"}],"cameras":[{"extensions":{"S8S_v3d_camera":{"controls":"ORBIT","enablePan":true,"moveSpeed":1.0,"orbitMaxDistance":100.0,"orbitMaxPolarAngle":3.1415927410125732,"orbitMaxZoom":100.0,"orbitMinDistance":0.0,"orbitMinPolarAngle":0.0,"orbitMinZoom":0.009999999776482582,"orbitTarget":[0.0,0.0,-0.0],"rotateSpeed":1.0,"viewportFitInitialAspect":1.7777777777777777,"viewportFitType":"AUTO"}},"name":"Camera.001","orthographic":{"xmag":7.657142639160156,"ymag":4.307142734527588,"zfar":100.0,"znear":0.10000000149011612},"type":"orthographic"}],"extensions":{"S8S_v3d_lights":{"lights":[{"color":[1.0,1.0,1.0],"decay":2,"distance":14.142135781781635,"intensity":200.0,"name":"Light","power":200.0,"profile":"blender","shadow":{"bias":-0.0018,"cameraFar":14.142135781781635,"cameraFov":0,"cameraNear":0.05000000074505806,"enabled":true,"expBias":2.5,"mapSize":512,"radius":1.0,"slopeScaledBias":2.5},"type":"point"}]}},"extensionsUsed":["S8S_v3d_materials","S8S_v3d_camera","S8S_v3d_lights","S8S_v3d_mesh","S8S_v3d_node","S8S_v3d_scene"],"materials":[{"extensions":{"S8S_v3d_materials":{"gtaoVisible":true,"materialIndex":0,"nodeGraph":{"edges":[{"fromNode":1,"fromOutput":0,"toInput":0,"toNode":0}],"nodes":[{"inputs":[[0,0,0,0],[0,0,0,0],[0.0,0.0,0.0],0.0],"is_active_output":true,"name":"Material Output","outputs":[],"type":"OUTPUT_MATERIAL_BL"},{"inputs":[[0.800000011920929,0.800000011920929,0.800000011920929,1.0],0.0,0.5,1.4500000476837158,1.0,[0.0,0.0,0.0],0.0,[1.0,0.20000000298023224,0.10000000149011612],0.05000000074505806,1.399999976158142,0.0,0.5,[1.0,1.0,1.0,1.0],0.0,0.0,[0.0,0.0,0.0],0.0,0.0,0.029999999329447746,1.5,[1.0,1.0,1.0,1.0],[0.0,0.0,0.0],0.0,0.5,[1.0,1.0,1.0,1.0],[0.0,0.0,0.0,1.0],1.0],"is_active_output":false,"name":"Principled BSDF","outputs":[[0,0,0,0]],"type":"BSDF_PRINCIPLED_BL"}]},"useCastShadows":true}},"name":"Material"},{"extensions":{"S8S_v3d_materials":{"gtaoVisible":true,"materialIndex":0,"nodeGraph":{"edges":[{"fromNode":0,"fromOutput":0,"toInput":0,"toNode":1}],"nodes":[{"inputs":[[0.0,0.0,0.0,1.0],0.7954545617103577,1.0,1.5,1.0,[0.0,0.0,0.0],0.0,[1.0,0.20000000298023224,0.10000000149011612],0.05000000074505806,1.399999976158142,0.0,0.5,[1.0,1.0,1.0,1.0],0.0,0.0,[0.0,0.0,0.0],0.0,0.0,0.029999999329447746,1.5,[1.0,1.0,1.0,1.0],[0.0,0.0,0.0],0.0,0.5,[1.0,1.0,1.0,1.0],[1.0,1.0,1.0,1.0],0.0],"is_active_output":false,"name":"Principled BSDF","outputs":[[0,0,0,0]],"type":"BSDF_PRINCIPLED_BL"},{"inputs":[[0,0,0,0],[0,0,0,0],[0.0,0.0,0.0],0.0],"is_active_output":true,"name":"Material Output","outputs":[],"type":"OUTPUT_MATERIAL_BL"}]},"useCastShadows":true}},"name":"Material.001"},{"extensions":{"S8S_v3d_materials":{"gtaoVisible":true,"materialIndex":0,"nodeGraph":{"edges":[{"fromNode":0,"fromOutput":0,"toInput":0,"toNode":1}],"nodes":[{"inputs":[[1.0,1.0,1.0,1.0],1.0],"is_active_output":false,"name":"Background","outputs":[[0,0,0,0]],"type":"BACKGROUND_BL"},{"inputs":[[0,0,0,0],[0,0,0,0]],"is_active_output":true,"name":"World Output","outputs":[],"type":"OUTPUT_WORLD_BL"}]},"useCastShadows":true}},"name":"Verge3D_Environment_World.001"}],"meshes":[{"extensions":{"S8S_v3d_mesh":{"colorLayers":{},"uvLayers":{"UVMap":"TEXCOORD_0"}}},"extras":{"targetNames":["Key 1"]},"name":"Curve.003","primitives":[{"attributes":{"NORMAL":2,"POSITION":1,"TEXCOORD_0":3},"indices":0,"material":1,"mode":4,"targets":[{"NORMAL":5,"POSITION":4}]},{"attributes":{"NORMAL":8,"POSITION":7,"TEXCOORD_0":9},"indices":6,"material":0,"mode":4,"targets":[{"NORMAL":11,"POSITION":10}]}],"weights":[0.0]}],"nodes":[{"extensions":{"S8S_v3d_lights":{"light":0},"S8S_v3d_node":{"frustumCulling":true,"groupNames":["Collection"],"hidden":false,"hidpiCompositing":false,"objectColor":[0.0,0.0,0.0,0.0],"objectIndex":0,"renderOrder":0}},"name":"Light","rotation":[-0.28416627645492554,0.7269423007965088,0.34203392267227173,0.5232754945755005],"scale":[1.0,0.9999998807907104,0.9999998807907104],"translation":[4.076245307922363,5.903861999511719,-1.0054539442062378]},{"extensions":{"S8S_v3d_node":{"frustumCulling":true,"groupNames":["ic.svg"],"hidden":false,"hidpiCompositing":false,"objectColor":[1.0,1.0,1.0,1.0],"objectIndex":0,"renderOrder":0,"useShadows":true}},"mesh":0,"name":"Curve.001","scale":[40.0,40.0,40.0],"translation":[-0.29170429706573486,-0.16494883596897125,-0.19555485248565674]},{"camera":0,"extensions":{"S8S_v3d_node":{"frustumCulling":true,"groupNames":["Collection"],"hidden":false,"hidpiCompositing":false,"objectColor":[0.0,0.0,0.0,0.0],"objectIndex":0,"renderOrder":0}},"name":"Camera.001","rotation":[-0.27474284172058105,0.38766562938690186,0.12223049998283386,0.8713732957839966],"scale":[1.0,0.9999998211860657,0.9999998211860657],"translation":[7.039149284362793,6.674708843231201,6.061644077301025]}],"scene":0,"scenes":[{"extensions":{"S8S_v3d_scene":{"aaMethod":"AUTO","iblEnvironmentMode":"PMREM","physicallyCorrectLights":true,"pmremMaxTileSize":256,"shadowMap":{"esmDistanceScale":1.0,"renderReverseSided":false,"renderSingleSided":true,"type":"PCFPOISSON"},"worldMaterial":2}},"extras":{"animFrameRate":24,"coordSystem":"Z_UP_RIGHT"},"name":"Scene","nodes":[0,2,1]}]}
